<svg width="1439" height="464" viewBox="0 0 1439 464" fill="none" xmlns="http://www.w3.org/2000/svg">
<mask id="path-1-inside-1_65_21" fill="white">
<path d="M0 65C0 45.67 15.67 30 35 30H1405C1424.33 30 1440 45.67 1440 65V464H0V65Z"/>
</mask>
<path d="M0 65C0 45.67 15.67 30 35 30H1405C1424.33 30 1440 45.67 1440 65V464H0V65Z" fill="#110320"/>
<path d="M0 65C0 45.1177 16.1177 29 36 29H1404C1423.88 29 1440 45.1177 1440 65C1440 46.2223 1424.33 31 1405 31H35C15.67 31 0 46.2223 0 65ZM1440 464H0H1440ZM0 464V30V464ZM1440 30V464V30Z" fill="#DEFFEB" mask="url(#path-1-inside-1_65_21)"/>
<rect x="748.586" y="30" width="40.4264" height="40.4264" transform="rotate(135 748.586 30)" fill="#21073C" stroke="#DEFFEB" stroke-width="2"/>
<path d="M719.878 17.7563L732 29.8782L729.879 32.0374L721.393 23.5521V42H718.363V23.5521L709.878 32.0374L707.756 29.8782L719.878 17.7563Z" fill="#DEFFEB"/>
</svg>
