<svg width="145" height="26" viewBox="0 0 145 26" fill="none" xmlns="http://www.w3.org/2000/svg">
<path d="M9.7 9.03C9.82 8.81 9.92 8.62 10 8.46C10.08 8.28 10.16 8.11 10.24 7.95C10.74 6.93 11.32 6 11.98 5.16C12.66 4.32 13.45 3.61 14.35 3.03C14.93 2.69 15.51 2.42 16.09 2.22C16.67 2.02 17.28 1.99 17.92 2.13C19.1 2.37 20.02 3.02 20.68 4.08C21.12 4.72 21.44 5.41 21.64 6.15C21.84 6.87 22 7.61 22.12 8.37C22.46 10.95 22.5 13.49 22.24 15.99C22 18.47 21.48 20.94 20.68 23.4C20.48 23.98 20.21 24.38 19.87 24.6C19.55 24.82 19.14 24.95 18.64 24.99C17.68 25.03 17.01 24.6 16.63 23.7C16.43 23.26 16.31 22.78 16.27 22.26C16.15 20.94 16.11 19.62 16.15 18.3C16.19 16.96 16.27 15.62 16.39 14.28C16.45 13.7 16.49 13.12 16.51 12.54C16.55 11.96 16.59 11.38 16.63 10.8C16.69 9.64 16.61 8.81 16.39 8.31C16.19 7.81 15.92 7.59 15.58 7.65C15.26 7.69 14.89 7.99 14.47 8.55C14.07 9.09 13.71 9.82 13.39 10.74C13.11 11.54 12.85 12.35 12.61 13.17C12.39 13.97 12.17 14.77 11.95 15.57C11.85 15.85 11.78 16.13 11.74 16.41C11.7 16.67 11.64 16.94 11.56 17.22C11.22 18.22 10.59 18.76 9.67 18.84C9.19 18.9 8.77 18.82 8.41 18.6C8.07 18.36 7.8 18.01 7.6 17.55C7.38 17.05 7.18 16.55 7 16.05C6.82 15.53 6.65 15.01 6.49 14.49C6.39 14.15 6.28 13.74 6.16 13.26C6.06 12.76 5.96 12.37 5.86 12.09C5.76 11.79 5.67 11.68 5.59 11.76C5.51 11.82 5.45 12.22 5.41 12.96C5.37 14.36 5.4 15.75 5.5 17.13C5.6 18.49 5.71 19.86 5.83 21.24C5.93 21.7 5.96 22.14 5.92 22.56C5.88 22.98 5.74 23.34 5.5 23.64C5.28 23.94 5 24.13 4.66 24.21C4.36 24.27 4.05 24.22 3.73 24.06C3.43 23.9 3.2 23.62 3.04 23.22C2.86 22.82 2.71 22.41 2.59 21.99C2.47 21.57 2.36 21.13 2.26 20.67C1.28 15.83 1.3 10.97 2.32 6.09C2.4 5.75 2.49 5.4 2.59 5.04C2.71 4.68 2.85 4.34 3.01 4.02C3.23 3.56 3.51 3.2 3.85 2.94C4.19 2.66 4.55 2.49 4.93 2.43C5.31 2.37 5.69 2.42 6.07 2.58C6.45 2.74 6.81 3.01 7.15 3.39C7.43 3.73 7.68 4.11 7.9 4.53C8.12 4.93 8.33 5.33 8.53 5.73C8.75 6.25 8.94 6.79 9.1 7.35C9.28 7.89 9.48 8.45 9.7 9.03ZM29.2113 18.39C29.4713 19.01 29.7413 19.41 30.0213 19.59C30.3213 19.77 30.7813 19.8 31.4013 19.68C32.0613 19.52 32.6913 19.3 33.2913 19.02C33.9113 18.74 34.4513 18.32 34.9113 17.76C35.3513 17.22 35.8613 17.06 36.4413 17.28C36.9813 17.5 37.2613 17.95 37.2813 18.63C37.3413 19.19 37.1713 19.73 36.7713 20.25C36.0113 21.21 35.1613 22.02 34.2213 22.68C33.2813 23.34 32.1913 23.76 30.9512 23.94C29.9313 24.1 29.0113 23.99 28.1913 23.61C27.3713 23.23 26.6213 22.67 25.9413 21.93C25.3413 21.29 24.8713 20.58 24.5313 19.8C24.2113 19 24.0013 18.16 23.9013 17.28C23.7413 16.06 23.7713 14.89 23.9913 13.77C24.2313 12.63 24.6913 11.54 25.3713 10.5C25.8113 9.8 26.3513 9.2 26.9912 8.7C27.6513 8.2 28.3513 7.82 29.0913 7.56C29.8513 7.3 30.6413 7.16 31.4613 7.14C32.2813 7.12 33.0813 7.24 33.8613 7.5C35.3613 8 36.4813 8.95 37.2213 10.35C38.1413 12.07 37.9913 13.66 36.7713 15.12C35.4513 16.74 33.7213 17.76 31.5813 18.18C31.2013 18.26 30.8113 18.31 30.4113 18.33C30.0313 18.33 29.6313 18.35 29.2113 18.39ZM28.8513 14.58C29.1913 14.7 29.5513 14.75 29.9313 14.73C30.3313 14.71 30.7213 14.64 31.1013 14.52C31.5013 14.4 31.8713 14.23 32.2113 14.01C32.5713 13.79 32.8813 13.53 33.1413 13.23C33.7213 12.57 33.6213 12.05 32.8413 11.67C32.7013 11.61 32.5613 11.57 32.4213 11.55C32.3013 11.53 32.1713 11.51 32.0313 11.49C31.1713 11.47 30.4613 11.73 29.9013 12.27C29.3413 12.79 28.9913 13.56 28.8513 14.58ZM45.3456 19.44C45.3856 19.84 45.4456 20.24 45.5256 20.64C45.6256 21.04 45.7256 21.45 45.8256 21.87C45.8656 22.09 45.8856 22.32 45.8856 22.56C45.9056 22.8 45.8956 23.03 45.8556 23.25C45.7756 23.65 45.6156 23.99 45.3756 24.27C45.1556 24.57 44.8856 24.78 44.5656 24.9C44.2456 25.04 43.9056 25.1 43.5456 25.08C43.1856 25.08 42.8256 24.98 42.4656 24.78C41.9256 24.5 41.4556 24.04 41.0556 23.4C40.6756 22.74 40.3556 22.02 40.0956 21.24C39.8556 20.46 39.6756 19.69 39.5556 18.93C39.4356 18.15 39.3756 17.49 39.3756 16.95C39.3156 14.25 39.3456 11.74 39.4656 9.42C39.5856 7.1 39.9056 4.8 40.4256 2.52C40.4656 2.4 40.4956 2.28 40.5156 2.16C40.5556 2.04 40.6056 1.93 40.6656 1.83C41.1056 0.949999 41.7756 0.519998 42.6756 0.539998C43.6756 0.579999 44.3156 1.06 44.5956 1.98C44.7956 2.6 44.9156 3.28 44.9556 4.02C44.9756 5.32 44.9756 6.62 44.9556 7.92C44.9356 9.22 44.9256 10.52 44.9256 11.82C44.9256 13.1 44.9456 14.38 44.9856 15.66C45.0456 16.92 45.1656 18.18 45.3456 19.44ZM47.0737 14.28C47.1137 13.04 47.4337 11.76 48.0337 10.44C48.6337 9.1 49.6037 7.89 50.9437 6.81C51.1837 6.61 51.4237 6.41 51.6637 6.21C51.9037 5.99 52.1537 5.8 52.4137 5.64C53.1737 5.14 53.9637 4.82 54.7837 4.68C55.6237 4.52 56.4437 4.52 57.2437 4.68C58.0437 4.84 58.7937 5.14 59.4937 5.58C60.2137 6.02 60.8237 6.58 61.3237 7.26C62.0237 8.18 62.5237 9.16 62.8237 10.2C63.1437 11.24 63.2937 12.33 63.2737 13.47C63.2337 14.77 63.0237 16.01 62.6437 17.19C62.2637 18.35 61.6837 19.45 60.9037 20.49C60.1437 21.51 59.2537 22.31 58.2337 22.89C57.2337 23.47 56.0937 23.79 54.8137 23.85C53.5537 23.89 52.4137 23.65 51.3937 23.13C50.3937 22.61 49.5137 21.84 48.7537 20.82C48.1537 19.96 47.7237 19.02 47.4637 18C47.2037 16.98 47.0737 15.74 47.0737 14.28ZM58.8937 13.8C58.8537 13.28 58.7937 12.8 58.7137 12.36C58.6337 11.92 58.4537 11.5 58.1737 11.1C57.9337 10.76 57.6237 10.49 57.2437 10.29C56.8837 10.07 56.4937 9.94 56.0737 9.9C55.6737 9.84 55.2737 9.87 54.8737 9.99C54.4737 10.09 54.1437 10.29 53.8837 10.59C53.4837 11.03 53.1437 11.54 52.8637 12.12C52.5837 12.7 52.3837 13.3 52.2637 13.92C52.1437 14.54 52.1037 15.17 52.1437 15.81C52.1837 16.43 52.3237 17.01 52.5637 17.55C52.9437 18.45 53.4837 19 54.1837 19.2C54.8837 19.4 55.6237 19.21 56.4037 18.63C57.2437 18.03 57.8537 17.32 58.2337 16.5C58.6137 15.66 58.8337 14.76 58.8937 13.8ZM69.6283 10.32C69.8483 10.16 70.0283 10.02 70.1683 9.9C70.3283 9.76 70.4883 9.63 70.6483 9.51C71.2483 9.03 71.8883 8.65 72.5683 8.37C73.2683 8.07 73.9983 7.85 74.7583 7.71C76.0783 7.51 77.2683 7.74 78.3283 8.4C79.4083 9.06 80.1683 10.03 80.6083 11.31C80.9483 12.31 81.1083 13.31 81.0883 14.31C81.0883 15.29 80.9283 16.28 80.6083 17.28C80.0883 18.8 79.3483 20.13 78.3883 21.27C77.4283 22.41 76.1883 23.28 74.6683 23.88C73.2883 24.42 71.9483 24.52 70.6483 24.18C69.3683 23.86 68.2283 23.15 67.2283 22.05C66.5683 21.33 66.0683 20.54 65.7283 19.68C65.3883 18.82 65.1383 17.92 64.9783 16.98C64.6183 14.98 64.4883 13.01 64.5883 11.07C64.7083 9.11 65.0183 7.15 65.5183 5.19C65.6383 4.63 65.8283 4.12 66.0883 3.66C66.5683 2.76 67.2983 2.4 68.2783 2.58C68.6783 2.66 69.0083 2.87 69.2683 3.21C69.5483 3.53 69.6883 3.95 69.6883 4.47C69.7083 5.09 69.7083 5.72 69.6883 6.36C69.6683 6.98 69.6483 7.61 69.6283 8.25V10.32ZM76.4383 14.49C76.4183 14.33 76.4083 14.19 76.4083 14.07C76.4083 13.95 76.3983 13.84 76.3783 13.74C76.3383 13.6 76.2983 13.45 76.2583 13.29C76.1383 12.95 75.9883 12.72 75.8083 12.6C75.6483 12.48 75.3883 12.48 75.0283 12.6C74.5683 12.74 74.0283 13.01 73.4083 13.41C72.8083 13.79 72.2583 14.24 71.7583 14.76C71.2783 15.28 70.9183 15.83 70.6783 16.41C70.4383 16.99 70.4583 17.53 70.7383 18.03C70.8183 18.19 70.8883 18.31 70.9483 18.39C71.6683 19.59 72.5883 19.83 73.7083 19.11C74.5683 18.57 75.2183 17.91 75.6583 17.13C76.0983 16.33 76.3583 15.45 76.4383 14.49ZM87.805 18.39C88.065 19.01 88.335 19.41 88.615 19.59C88.915 19.77 89.375 19.8 89.995 19.68C90.655 19.52 91.285 19.3 91.885 19.02C92.505 18.74 93.045 18.32 93.505 17.76C93.945 17.22 94.455 17.06 95.035 17.28C95.575 17.5 95.855 17.95 95.875 18.63C95.935 19.19 95.765 19.73 95.365 20.25C94.605 21.21 93.755 22.02 92.815 22.68C91.875 23.34 90.785 23.76 89.545 23.94C88.525 24.1 87.605 23.99 86.785 23.61C85.965 23.23 85.215 22.67 84.535 21.93C83.935 21.29 83.465 20.58 83.125 19.8C82.805 19 82.595 18.16 82.495 17.28C82.335 16.06 82.365 14.89 82.585 13.77C82.825 12.63 83.285 11.54 83.965 10.5C84.405 9.8 84.945 9.2 85.585 8.7C86.245 8.2 86.945 7.82 87.685 7.56C88.445 7.3 89.235 7.16 90.055 7.14C90.875 7.12 91.675 7.24 92.455 7.5C93.955 8 95.075 8.95 95.815 10.35C96.735 12.07 96.585 13.66 95.365 15.12C94.045 16.74 92.315 17.76 90.175 18.18C89.795 18.26 89.405 18.31 89.005 18.33C88.625 18.33 88.225 18.35 87.805 18.39ZM87.445 14.58C87.785 14.7 88.145 14.75 88.525 14.73C88.925 14.71 89.315 14.64 89.695 14.52C90.095 14.4 90.465 14.23 90.805 14.01C91.165 13.79 91.475 13.53 91.735 13.23C92.315 12.57 92.215 12.05 91.435 11.67C91.295 11.61 91.155 11.57 91.015 11.55C90.895 11.53 90.765 11.51 90.625 11.49C89.765 11.47 89.055 11.73 88.495 12.27C87.935 12.79 87.585 13.56 87.445 14.58ZM103.939 19.44C103.979 19.84 104.039 20.24 104.119 20.64C104.219 21.04 104.319 21.45 104.419 21.87C104.459 22.09 104.479 22.32 104.479 22.56C104.499 22.8 104.489 23.03 104.449 23.25C104.369 23.65 104.209 23.99 103.969 24.27C103.749 24.57 103.479 24.78 103.159 24.9C102.839 25.04 102.499 25.1 102.139 25.08C101.779 25.08 101.419 24.98 101.059 24.78C100.519 24.5 100.049 24.04 99.6494 23.4C99.2694 22.74 98.9494 22.02 98.6894 21.24C98.4494 20.46 98.2694 19.69 98.1494 18.93C98.0294 18.15 97.9694 17.49 97.9694 16.95C97.9094 14.25 97.9394 11.74 98.0594 9.42C98.1794 7.1 98.4994 4.8 99.0194 2.52C99.0594 2.4 99.0894 2.28 99.1094 2.16C99.1494 2.04 99.1994 1.93 99.2594 1.83C99.6994 0.949999 100.369 0.519998 101.269 0.539998C102.269 0.579999 102.909 1.06 103.189 1.98C103.389 2.6 103.509 3.28 103.549 4.02C103.569 5.32 103.569 6.62 103.549 7.92C103.529 9.22 103.519 10.52 103.519 11.82C103.519 13.1 103.539 14.38 103.579 15.66C103.639 16.92 103.759 18.18 103.939 19.44ZM111.937 19.44C111.977 19.84 112.037 20.24 112.117 20.64C112.217 21.04 112.317 21.45 112.417 21.87C112.457 22.09 112.477 22.32 112.477 22.56C112.497 22.8 112.487 23.03 112.447 23.25C112.367 23.65 112.207 23.99 111.967 24.27C111.747 24.57 111.477 24.78 111.157 24.9C110.837 25.04 110.497 25.1 110.137 25.08C109.777 25.08 109.417 24.98 109.057 24.78C108.517 24.5 108.047 24.04 107.647 23.4C107.267 22.74 106.947 22.02 106.687 21.24C106.447 20.46 106.267 19.69 106.147 18.93C106.027 18.15 105.967 17.49 105.967 16.95C105.907 14.25 105.937 11.74 106.057 9.42C106.177 7.1 106.497 4.8 107.017 2.52C107.057 2.4 107.087 2.28 107.107 2.16C107.147 2.04 107.197 1.93 107.257 1.83C107.697 0.949999 108.367 0.519998 109.267 0.539998C110.267 0.579999 110.907 1.06 111.187 1.98C111.387 2.6 111.507 3.28 111.547 4.02C111.567 5.32 111.567 6.62 111.547 7.92C111.527 9.22 111.517 10.52 111.517 11.82C111.517 13.1 111.537 14.38 111.577 15.66C111.637 16.92 111.757 18.18 111.937 19.44ZM123.805 14.1C123.885 13.62 123.935 13.08 123.955 12.48C123.995 11.88 124.015 11.28 124.015 10.68C124.015 10.06 124.005 9.46 123.985 8.88C123.985 8.3 123.985 7.79 123.985 7.35C123.985 7.09 124.055 6.82 124.195 6.54C124.355 6.16 124.585 5.87 124.885 5.67C125.205 5.45 125.545 5.32 125.905 5.28C126.265 5.24 126.615 5.29 126.955 5.43C127.315 5.57 127.625 5.8 127.885 6.12C128.045 6.34 128.185 6.59 128.305 6.87C128.425 7.13 128.505 7.4 128.545 7.68C129.065 9.82 129.185 11.9 128.905 13.92C128.625 15.94 127.975 17.94 126.955 19.92C126.695 20.34 126.405 20.76 126.085 21.18C125.765 21.6 125.425 21.99 125.065 22.35C124.025 23.37 122.835 23.92 121.495 24C120.175 24.06 118.905 23.66 117.685 22.8C116.225 21.72 115.185 20.3 114.565 18.54C113.885 16.64 113.585 14.75 113.665 12.87C113.745 10.99 114.245 9.12 115.165 7.26C115.445 6.66 115.835 6.14 116.335 5.7C116.695 5.38 117.085 5.18 117.505 5.1C117.945 5 118.355 5.01 118.735 5.13C119.115 5.25 119.455 5.47 119.755 5.79C120.055 6.11 120.255 6.52 120.355 7.02C120.415 7.18 120.455 7.37 120.475 7.59C120.495 7.79 120.495 8 120.475 8.22C120.435 8.6 120.375 9.03 120.295 9.51C120.215 9.99 120.125 10.48 120.025 10.98C119.925 11.48 119.825 11.97 119.725 12.45C119.645 12.93 119.585 13.35 119.545 13.71C119.425 15.03 119.525 16.08 119.845 16.86C120.185 17.62 120.595 18.05 121.075 18.15C121.575 18.23 122.085 17.95 122.605 17.31C123.125 16.67 123.525 15.6 123.805 14.1ZM135.996 15.57C135.576 15.35 135.136 15.16 134.676 15C134.236 14.82 133.816 14.6 133.416 14.34C132.436 13.66 131.806 12.92 131.526 12.12C131.266 11.3 131.396 10.45 131.916 9.57C132.336 8.83 132.836 8.17 133.416 7.59C133.996 7.01 134.636 6.5 135.336 6.06C136.036 5.62 136.766 5.25 137.526 4.95C138.286 4.63 139.056 4.37 139.836 4.17C140.576 3.93 141.236 3.84 141.816 3.9C142.416 3.94 142.916 4.08 143.316 4.32C143.716 4.56 143.996 4.87 144.156 5.25C144.336 5.61 144.366 5.99 144.246 6.39C144.146 6.79 143.886 7.19 143.466 7.59C143.066 7.97 142.476 8.29 141.696 8.55C141.016 8.79 140.356 9.06 139.716 9.36C139.076 9.64 138.576 9.94 138.216 10.26C137.856 10.58 137.696 10.9 137.736 11.22C137.776 11.52 138.136 11.81 138.816 12.09C139.336 12.31 139.846 12.53 140.346 12.75C140.846 12.97 141.326 13.2 141.786 13.44C142.926 14.14 143.666 14.88 144.006 15.66C144.366 16.42 144.436 17.18 144.216 17.94C144.016 18.7 143.596 19.43 142.956 20.13C142.316 20.83 141.576 21.45 140.736 21.99C140.136 22.37 139.506 22.71 138.846 23.01C138.186 23.31 137.516 23.57 136.836 23.79C136.176 23.99 135.506 24.15 134.826 24.27C134.166 24.41 133.536 24.51 132.936 24.57C132.156 24.63 131.536 24.48 131.076 24.12C130.636 23.76 130.366 23.32 130.266 22.8C130.166 22.28 130.246 21.76 130.506 21.24C130.766 20.7 131.206 20.29 131.826 20.01C132.126 19.87 132.466 19.76 132.846 19.68C133.226 19.58 133.636 19.47 134.076 19.35C134.536 19.23 135.026 19.07 135.546 18.87C136.066 18.67 136.616 18.39 137.196 18.03C137.656 17.65 137.796 17.26 137.616 16.86C137.436 16.46 136.896 16.03 135.996 15.57Z" fill="#9DFF8D"/>
</svg>
