<svg width="159" height="23" viewBox="0 0 159 23" fill="none" xmlns="http://www.w3.org/2000/svg">
<path d="M0.896307 0.181818H6.58523L12.5938 14.8409H12.8494L18.858 0.181818H24.5469V22H20.0724V7.79901H19.8913L14.245 21.8935H11.1982L5.55185 7.74574H5.37074V22H0.896307V0.181818ZM35.7196 22.3196C34.0364 22.3196 32.5875 21.9787 31.373 21.2969C30.1657 20.608 29.2353 19.6349 28.5819 18.3778C27.9284 17.1136 27.6017 15.6186 27.6017 13.8928C27.6017 12.2095 27.9284 10.7322 28.5819 9.46094C29.2353 8.18963 30.155 7.19886 31.3411 6.48864C32.5343 5.77841 33.9334 5.4233 35.5385 5.4233C36.6181 5.4233 37.623 5.5973 38.5534 5.94531C39.4909 6.28622 40.3077 6.80114 41.0037 7.49006C41.7069 8.17898 42.2537 9.04545 42.6444 10.0895C43.035 11.1264 43.2303 12.3409 43.2303 13.733V14.9794H29.4128V12.1669H38.9583C38.9583 11.5135 38.8162 10.9347 38.5321 10.4304C38.248 9.92614 37.8539 9.53196 37.3496 9.24787C36.8525 8.95668 36.2736 8.81108 35.6131 8.81108C34.9242 8.81108 34.3134 8.97088 33.7807 9.29048C33.2551 9.60298 32.8432 10.0256 32.5449 10.5582C32.2466 11.0838 32.0939 11.6697 32.0868 12.3161V14.9901C32.0868 15.7997 32.236 16.4993 32.5343 17.0888C32.8397 17.6783 33.2694 18.1328 33.8233 18.4524C34.3773 18.772 35.0343 18.9318 35.7942 18.9318C36.2985 18.9318 36.7601 18.8608 37.1792 18.7188C37.5982 18.5767 37.9569 18.3636 38.2551 18.0795C38.5534 17.7955 38.7807 17.4474 38.937 17.0355L43.1344 17.3125C42.9213 18.321 42.4846 19.2017 41.824 19.9545C41.1706 20.7003 40.3255 21.2827 39.2885 21.7017C38.2587 22.1136 37.0691 22.3196 35.7196 22.3196ZM50.7303 0.181818V22H46.1919V0.181818H50.7303ZM61.7592 22.3196C60.1044 22.3196 58.6733 21.968 57.4659 21.2649C56.2656 20.5547 55.3388 19.5675 54.6854 18.3033C54.032 17.032 53.7053 15.5582 53.7053 13.8821C53.7053 12.1918 54.032 10.7145 54.6854 9.45028C55.3388 8.17898 56.2656 7.19176 57.4659 6.48864C58.6733 5.77841 60.1044 5.4233 61.7592 5.4233C63.4141 5.4233 64.8416 5.77841 66.0419 6.48864C67.2493 7.19176 68.1797 8.17898 68.8331 9.45028C69.4865 10.7145 69.8132 12.1918 69.8132 13.8821C69.8132 15.5582 69.4865 17.032 68.8331 18.3033C68.1797 19.5675 67.2493 20.5547 66.0419 21.2649C64.8416 21.968 63.4141 22.3196 61.7592 22.3196ZM61.7805 18.804C62.5334 18.804 63.1619 18.5909 63.6662 18.1648C64.1705 17.7315 64.5504 17.142 64.8061 16.3963C65.0689 15.6506 65.2003 14.8018 65.2003 13.8501C65.2003 12.8984 65.0689 12.0497 64.8061 11.304C64.5504 10.5582 64.1705 9.96875 63.6662 9.53551C63.1619 9.10227 62.5334 8.88565 61.7805 8.88565C61.0206 8.88565 60.3814 9.10227 59.8629 9.53551C59.3516 9.96875 58.9645 10.5582 58.7017 11.304C58.446 12.0497 58.3182 12.8984 58.3182 13.8501C58.3182 14.8018 58.446 15.6506 58.7017 16.3963C58.9645 17.142 59.3516 17.7315 59.8629 18.1648C60.3814 18.5909 61.0206 18.804 61.7805 18.804ZM72.8494 22V0.181818H77.3878V8.38494H77.5263C77.7251 7.9446 78.0128 7.49716 78.3892 7.04261C78.7727 6.58097 79.2699 6.19744 79.8807 5.89205C80.4986 5.57955 81.2656 5.4233 82.1818 5.4233C83.375 5.4233 84.4759 5.7358 85.4844 6.3608C86.4929 6.97869 87.299 7.91264 87.9027 9.16264C88.5064 10.4055 88.8082 11.9645 88.8082 13.8395C88.8082 15.6648 88.5135 17.206 87.924 18.4631C87.3416 19.7131 86.5462 20.6612 85.5376 21.3075C84.5362 21.9467 83.4141 22.2663 82.1712 22.2663C81.2905 22.2663 80.5412 22.1207 79.9233 21.8295C79.3125 21.5384 78.8118 21.1726 78.4212 20.7322C78.0305 20.2848 77.7322 19.8338 77.5263 19.3793H77.3239V22H72.8494ZM77.2919 13.8182C77.2919 14.7912 77.4268 15.6399 77.6967 16.3643C77.9666 17.0888 78.3572 17.6534 78.8686 18.0582C79.38 18.456 80.0014 18.6548 80.733 18.6548C81.4716 18.6548 82.0966 18.4524 82.608 18.0476C83.1193 17.6357 83.5064 17.0675 83.7692 16.343C84.0391 15.6115 84.174 14.7699 84.174 13.8182C84.174 12.8736 84.0426 12.0426 83.7798 11.3253C83.517 10.608 83.13 10.0469 82.6186 9.64204C82.1072 9.23722 81.4787 9.0348 80.733 9.0348C79.9943 9.0348 79.3693 9.23011 78.858 9.62074C78.3537 10.0114 77.9666 10.5653 77.6967 11.2827C77.4268 12 77.2919 12.8452 77.2919 13.8182ZM99.2939 22.3196C97.6106 22.3196 96.1618 21.9787 94.9473 21.2969C93.7399 20.608 92.8095 19.6349 92.1561 18.3778C91.5027 17.1136 91.176 15.6186 91.176 13.8928C91.176 12.2095 91.5027 10.7322 92.1561 9.46094C92.8095 8.18963 93.7292 7.19886 94.9153 6.48864C96.1085 5.77841 97.5076 5.4233 99.1127 5.4233C100.192 5.4233 101.197 5.5973 102.128 5.94531C103.065 6.28622 103.882 6.80114 104.578 7.49006C105.281 8.17898 105.828 9.04545 106.219 10.0895C106.609 11.1264 106.805 12.3409 106.805 13.733V14.9794H92.987V12.1669H102.532C102.532 11.5135 102.39 10.9347 102.106 10.4304C101.822 9.92614 101.428 9.53196 100.924 9.24787C100.427 8.95668 99.8478 8.81108 99.1873 8.81108C98.4984 8.81108 97.8876 8.97088 97.3549 9.29048C96.8294 9.60298 96.4174 10.0256 96.1191 10.5582C95.8208 11.0838 95.6681 11.6697 95.661 12.3161V14.9901C95.661 15.7997 95.8102 16.4993 96.1085 17.0888C96.4139 17.6783 96.8436 18.1328 97.3975 18.4524C97.9515 18.772 98.6085 18.9318 99.3684 18.9318C99.8727 18.9318 100.334 18.8608 100.753 18.7188C101.172 18.5767 101.531 18.3636 101.829 18.0795C102.128 17.7955 102.355 17.4474 102.511 17.0355L106.709 17.3125C106.496 18.321 106.059 19.2017 105.398 19.9545C104.745 20.7003 103.9 21.2827 102.863 21.7017C101.833 22.1136 100.643 22.3196 99.2939 22.3196ZM114.305 0.181818V22H109.766V0.181818H114.305ZM122.478 0.181818V22H117.94V0.181818H122.478ZM136.607 15.0327V5.63636H141.146V22H136.789V19.0277H136.618C136.249 19.9865 135.634 20.7571 134.775 21.3395C133.923 21.9219 132.882 22.2131 131.654 22.2131C130.56 22.2131 129.597 21.9645 128.767 21.4673C127.936 20.9702 127.286 20.2635 126.817 19.3473C126.355 18.4311 126.121 17.3338 126.114 16.0554V5.63636H130.652V15.2457C130.659 16.2116 130.919 16.9751 131.43 17.5362C131.941 18.0973 132.627 18.3778 133.486 18.3778C134.033 18.3778 134.544 18.2536 135.02 18.005C135.496 17.7493 135.879 17.3729 136.171 16.8757C136.469 16.3786 136.615 15.7642 136.607 15.0327ZM158.391 10.3026L154.236 10.5582C154.165 10.2031 154.012 9.88352 153.778 9.59943C153.544 9.30824 153.235 9.07741 152.851 8.90696C152.475 8.7294 152.024 8.64062 151.498 8.64062C150.795 8.64062 150.202 8.78977 149.719 9.08807C149.236 9.37926 148.995 9.76989 148.995 10.2599C148.995 10.6506 149.151 10.9808 149.463 11.2507C149.776 11.5206 150.312 11.7372 151.072 11.9006L154.034 12.4972C155.625 12.8239 156.811 13.3494 157.592 14.0739C158.373 14.7983 158.764 15.75 158.764 16.929C158.764 18.0014 158.448 18.9425 157.816 19.7521C157.191 20.5618 156.331 21.1939 155.238 21.6484C154.151 22.0959 152.897 22.3196 151.477 22.3196C149.311 22.3196 147.585 21.8686 146.299 20.9666C145.021 20.0575 144.272 18.8217 144.051 17.2592L148.515 17.0249C148.65 17.6854 148.977 18.1896 149.495 18.5376C150.014 18.8786 150.678 19.049 151.488 19.049C152.283 19.049 152.922 18.8963 153.405 18.5909C153.895 18.2784 154.144 17.8771 154.151 17.3871C154.144 16.9751 153.97 16.6378 153.629 16.375C153.288 16.1051 152.762 15.8991 152.052 15.7571L149.218 15.1925C147.62 14.8729 146.431 14.3189 145.65 13.5305C144.875 12.7422 144.488 11.7372 144.488 10.5156C144.488 9.46449 144.772 8.55895 145.341 7.79901C145.916 7.03906 146.722 6.45313 147.759 6.04119C148.803 5.62926 150.025 5.4233 151.424 5.4233C153.49 5.4233 155.117 5.86009 156.303 6.73366C157.496 7.60724 158.192 8.79687 158.391 10.3026Z" fill="#9DFF8D"/>
</svg>
